<svg xmlns="http://www.w3.org/2000/svg" data-name="Layer 1" viewBox="0 0 685.814 714.982"><path fill="#3b9652" d="M667.033 495.452c-9.967 32.313-21.14 59.673-43.549 84.557-8.695 9.936-43.513 43.546-58.431 28.629-2.508-2.476-4.985-12.442-6.223-16.156 1.238-1.238-13.68-55.99-28.628-95.79-21.141-53.514-58.433-99.507-115.662-138.1-9.937-6.19-22.376-12.38-32.313-6.19-13.678 8.727-11.203 29.865-2.504 42.307 43.547 65.865 73.38 116.9 67.162 220.119-2.479 44.755-6.223 82.112-55.958 89.539-47.263 7.491-94.525 6.252-140.546-4.952-89.539-21.14-171.62-78.335-213.93-160.447-41.04-80.872-38.533-172.887-7.458-254.967 32.343-84.588 100.741-145.528 123.12-235.038 2.507-11.234 2.507-32.342 12.443-39.833 8.727-6.19 21.138-2.476 31.104 2.478 28.598 17.455 69.64 27.358 101.982 36.117 75.859 21.11 156.701 27.36 225.1 68.401 58.466 34.789 101.984 90.776 128.105 154.194 29.866 70.876 39.8 151.749 16.186 225.132" data-name="Chickpea"/></svg>